<svg width="40" height="40" viewBox="0 0 40 40" fill="none" xmlns="http://www.w3.org/2000/svg">
<g clip-path="url(#clip0_62_313)">
<rect width="40" height="40" rx="20" fill="#E5CA5E"/>
<path fill-rule="evenodd" clip-rule="evenodd" d="M2.51008 20C2.51008 24.6413 4.36126 29.0925 7.65638 32.3744C10.9515 35.6563 15.4206 37.5 20.0807 37.5C24.7407 37.5 29.2098 35.6563 32.5049 32.3744C35.8 29.0925 37.6512 24.6413 37.6512 20C37.6512 15.3587 35.8 10.9075 32.5049 7.62563C29.2098 4.34374 24.7407 2.5 20.0807 2.5C15.4206 2.5 10.9515 4.34374 7.65638 7.62563C4.36126 10.9075 2.51008 15.3587 2.51008 20V20ZM40.1613 20C40.1613 25.3043 38.0457 30.3914 34.2798 34.1421C30.514 37.8929 25.4064 40 20.0807 40C14.7549 40 9.64734 37.8929 5.88149 34.1421C2.11563 30.3914 0 25.3043 0 20C0 14.6957 2.11563 9.60859 5.88149 5.85786C9.64734 2.10714 14.7549 0 20.0807 0C25.4064 0 30.514 2.10714 34.2798 5.85786C38.0457 9.60859 40.1613 14.6957 40.1613 20V20ZM21.3357 11.25C21.3357 10.9185 21.2035 10.6005 20.9681 10.3661C20.7327 10.1317 20.4135 10 20.0807 10C19.7478 10 19.4286 10.1317 19.1932 10.3661C18.9578 10.6005 18.8256 10.9185 18.8256 11.25V25.7325L13.439 20.365C13.2033 20.1303 12.8837 19.9984 12.5504 19.9984C12.2171 19.9984 11.8975 20.1303 11.6618 20.365C11.4262 20.5997 11.2938 20.9181 11.2938 21.25C11.2938 21.5819 11.4262 21.9003 11.6618 22.135L19.1921 29.635C19.3087 29.7514 19.4472 29.8438 19.5996 29.9068C19.7521 29.9698 19.9156 30.0022 20.0807 30.0022C20.2457 30.0022 20.4092 29.9698 20.5617 29.9068C20.7141 29.8438 20.8526 29.7514 20.9692 29.635L28.4995 22.135C28.7351 21.9003 28.8675 21.5819 28.8675 21.25C28.8675 20.9181 28.7351 20.5997 28.4995 20.365C28.2638 20.1303 27.9442 19.9984 27.6109 19.9984C27.2776 19.9984 26.958 20.1303 26.7223 20.365L21.3357 25.7325V11.25Z" fill="#353648"/>
</g>
<defs>
<clipPath id="clip0_62_313">
<rect width="40" height="40" rx="20" fill="white"/>
</clipPath>
</defs>
</svg>
